<?xml version="1.0" encoding="iso-8859-1"?>
<!-- Uploaded to: SVG Repo, www.svgrepo.com, Generator: SVG Repo Mixer Tools -->
<svg fill="#FFD700" height="800px" width="800px" version="1.1" id="Capa_1" xmlns="http://www.w3.org/2000/svg" xmlns:xlink="http://www.w3.org/1999/xlink" 
	 viewBox="0 0 490 490" xml:space="preserve">

<g>
	<path d="M265.179,221.227c-30.622-11.527-43.233-19.093-43.233-30.972c0-10.09,7.568-20.179,30.972-20.179
		c25.958,0,42.529,8.3,51.886,12.26l10.442-40.711c-11.879-5.778-28.099-10.793-52.238-11.879V98.039h-35.285v34.229
		c-38.54,7.568-60.89,32.41-60.89,64.117c0,34.933,26.309,52.941,64.849,65.905c26.662,9.004,38.189,17.657,38.189,31.354
		c0,14.402-14.049,22.32-34.581,22.32c-23.436,0-44.671-7.567-59.805-15.838l-10.823,42.149c13.697,7.918,37.104,14.4,61.242,15.486
		v34.199h35.314v-36.721c41.415-7.216,64.116-34.581,64.116-66.639C325.335,256.16,308.031,236.361,265.179,221.227z"/>
	<path d="M245,0C109.69,0,0,109.69,0,245c0,135.31,109.69,245,245,245c135.309,0,245-109.69,245-245C490,109.69,380.309,0,245,0z
		 M245,452.308C130.69,452.308,37.692,359.31,37.692,245C37.692,130.69,130.69,37.692,245,37.692
		c114.31,0,207.308,92.998,207.308,207.308C452.308,359.31,359.31,452.308,245,452.308z"/>
</g>
</svg>