<?xml version="1.0" encoding="utf-8"?>
<!-- Generator: Adobe Illustrator 27.1.1, SVG Export Plug-In . SVG Version: 6.00 Build 0)  -->
<svg version="1.1" xmlns="http://www.w3.org/2000/svg" xmlns:xlink="http://www.w3.org/1999/xlink" x="0px" y="0px"
	 viewBox="0 0 800 800" style="enable-background:new 0 0 800 800;" xml:space="preserve">
<style type="text/css">
	.st0{display:none;}
	.st1{display:inline;stroke:#FFFFFF;stroke-miterlimit:10;}
	.st2{stroke:#FFFFFF;stroke-miterlimit:10;}
	.st3{fill:#FFD700;}
</style>
<g id="Layer_2" class="st0">
	<rect x="-8" class="st1" width="808" height="800"/>
</g>
<g id="Layer_3">
	<ellipse class="st2" cx="382.5" cy="391" rx="373.5" ry="382"/>
</g>
<g id="Capa_1">
	<g>
		<path class="st3" d="M432.9,361.2c-50-18.8-70.6-31.2-70.6-50.6c0-16.5,12.4-32.9,50.6-32.9c42.4,0,69.4,13.6,84.7,20l17-66.5
			c-19.4-9.4-45.9-17.6-85.3-19.4v-51.8h-57.6v55.9c-62.9,12.4-99.4,52.9-99.4,104.7c0,57,43,86.4,105.9,107.6
			c43.5,14.7,62.3,28.8,62.3,51.2c0,23.5-22.9,36.4-56.5,36.4c-38.3,0-72.9-12.4-97.6-25.9l-17.7,68.8c22.4,12.9,60.6,23.5,100,25.3
			v55.8h57.7v-60c67.6-11.8,104.7-56.5,104.7-108.8C531.2,418.2,502.9,385.9,432.9,361.2z"/>
		<path class="st3" d="M400,0C179.1,0,0,179.1,0,400s179.1,400,400,400c220.9,0,400-179.1,400-400S620.9,0,400,0z M400,738.5
			C213.4,738.5,61.5,586.6,61.5,400S213.4,61.5,400,61.5S738.5,213.4,738.5,400C738.5,586.6,586.6,738.5,400,738.5z"/>
	</g>
</g>
</svg>
